{"glyphs":{"$":{"x_min":0,"x_max":636,"ha":636,"o":"m 284 33 q 340 38 374 65 q 409 92 417 138 q 426 180 403 209 q 379 239 327 254 z m 341 580 q 290 576 257 551 q 225 525 216 482 q 208 443 229 417 q 250 391 301 375 z m 33 35 l 60 170 l 112 170 q 101 103 132 69 q 162 35 235 33 l 281 270 q 175 301 137 342 q 100 383 113 450 q 128 528 191 576 q 254 623 351 629 l 376 760 l 425 760 l 399 629 q 448 625 491 613 q 535 601 574 581 l 549 453 l 496 453 q 501 510 474 542 q 447 575 390 580 l 347 359 q 461 326 501 284 q 541 242 527 171 q 511 90 445 41 q 379 -8 274 -15 l 249 -147 l 200 -147 l 226 -15 q 179 -14 131 -2 q 83 11 33 35 z"},"?":{"x_min":0,"x_max":536,"ha":536,"o":"m 193 116 q 220 116 235 97 q 250 78 245 51 q 240 24 217 5 q 194 -14 167 -14 q 140 -14 125 5 q 109 23 115 51 q 120 78 143 97 q 165 116 193 116 z m 132 697 q 189 720 238 731 q 287 742 328 742 q 436 742 489 690 q 541 638 524 549 q 506 458 441 400 q 376 343 262 318 l 238 194 l 178 194 l 209 354 q 299 375 353 424 q 406 474 421 550 q 434 617 406 655 q 377 694 316 694 q 260 694 219 662 q 177 630 155 570 l 108 570 z"},"<":{"x_min":0,"x_max":838,"ha":838,"o":"m 732 498 l 225 313 l 732 129 l 732 46 l 106 273 l 106 354 l 732 581 z"},"'":{"x_min":0,"x_max":275,"ha":275,"o":"m 176 729 l 176 458 l 98 458 l 98 729 z"},"=":{"x_min":0,"x_max":838,"ha":838,"o":"m 106 452 l 732 452 l 732 374 l 106 374 z m 106 253 l 732 253 l 732 175 l 106 175 z"},"a":{"x_min":0,"x_max":596,"ha":596,"o":"m 363 81 q 298 -14 193 -14 q 107 -14 64 44 q 34 85 34 144 q 34 168 39 196 q 72 369 192 458 q 294 533 418 533 q 501 533 529 519 l 438 52 l 516 52 l 506 0 l 348 0 z m 128 146 q 128 42 229 42 q 291 42 333 91 q 375 140 393 234 l 438 469 l 438 469 q 438 483 399 483 q 306 483 233 410 q 161 336 135 203 q 128 171 128 146 z"},"L":{"x_min":0,"x_max":664,"ha":664,"o":"m -15 0 l -5 52 l 87 52 l 209 677 l 116 677 l 126 729 l 411 729 l 401 677 l 308 677 l 188 60 l 521 60 l 545 182 l 605 182 l 570 0 z"},"3":{"x_min":0,"x_max":636,"ha":636,"o":"m 162 698 q 224 720 278 731 q 333 742 379 742 q 486 742 537 696 q 588 650 572 568 q 559 502 509 458 q 459 414 380 398 q 467 385 506 333 q 546 280 529 197 q 510 95 430 40 q 351 -14 222 -14 q 165 -14 113 -2 q 61 10 12 35 l 40 177 l 94 177 q 85 106 121 70 q 157 34 234 34 q 309 34 360 77 q 412 121 426 196 q 443 282 407 326 q 371 370 285 370 l 239 370 l 249 420 l 273 420 q 358 420 408 455 q 458 491 472 562 q 484 626 455 660 q 427 694 361 694 q 295 694 252 663 q 210 631 192 570 l 137 570 z"},";":{"x_min":0,"x_max":337,"ha":337,"o":"m -11 -97 q 41 -63 72 -18 q 102 28 115 93 l 118 111 l 214 111 q 194 27 147 -32 q 100 -92 20 -136 z m 279 369 q 274 342 251 323 q 229 304 202 304 q 174 304 159 323 q 144 342 149 369 q 155 396 177 415 q 200 434 227 434 q 254 434 269 415 q 284 396 279 369 z"},"J":{"x_min":0,"x_max":401,"ha":401,"o":"m -168 -175 l -146 -60 l -90 -60 q -98 -108 -81 -132 q -64 -156 -21 -156 q 37 -156 67 -119 q 97 -83 118 24 l 245 677 l 131 677 l 142 729 l 447 729 l 437 677 l 344 677 l 216 20 q 192 -101 134 -154 q 75 -208 -33 -208 q -67 -208 -102 -200 q -136 -191 -168 -175 z"},"V":{"x_min":0,"x_max":722,"ha":722,"o":"m 235 677 l 342 117 l 666 677 l 583 677 l 594 729 l 808 729 l 797 677 l 727 677 l 335 0 l 251 0 l 124 677 l 51 677 l 61 729 l 327 729 l 316 677 z"},"\"":{"x_min":0,"x_max":460,"ha":460,"o":"m 176 729 l 176 458 l 98 458 l 98 729 z m 362 729 l 362 458 l 284 458 l 284 729 z"},"7":{"x_min":0,"x_max":636,"ha":636,"o":"m 625 679 l 208 0 l 135 0 l 533 649 l 196 649 l 179 559 l 122 559 l 155 729 l 635 729 z"},"S":{"x_min":0,"x_max":685,"ha":685,"o":"m 29 35 l 61 201 l 117 201 q 104 118 141 78 q 179 38 272 38 q 359 38 412 73 q 464 107 477 173 q 487 226 465 254 q 443 282 359 309 l 269 338 q 170 370 137 417 q 104 464 120 547 q 138 640 214 691 q 290 742 409 742 q 459 742 518 731 q 576 720 640 699 l 610 544 l 555 544 q 562 621 525 656 q 489 690 400 690 q 323 690 277 658 q 230 627 219 567 q 208 515 233 485 q 257 455 350 426 l 435 399 q 528 369 562 323 q 595 277 580 199 q 559 93 481 40 q 402 -14 268 -14 q 208 -14 148 -2 q 88 10 29 35 z"},"}":{"x_min":0,"x_max":636,"ha":636,"o":"m 45 -112 l 80 -112 q 148 -112 173 -91 q 198 -69 211 0 l 238 140 q 253 217 284 250 q 314 282 381 299 q 320 313 302 347 q 285 380 300 457 l 327 597 q 341 667 324 688 q 307 709 239 709 l 205 709 l 215 760 l 246 760 q 367 760 401 724 q 435 688 414 580 l 389 454 q 375 381 396 353 q 417 324 486 324 l 516 324 l 506 273 l 476 273 q 407 273 375 245 q 343 216 329 143 l 304 17 q 283 -91 235 -127 q 188 -163 66 -163 l 35 -163 z"},"Z":{"x_min":0,"x_max":695,"ha":695,"o":"m -26 0 l -19 35 l 558 669 l 181 669 l 160 560 l 100 560 l 133 729 l 709 729 l 702 694 l 125 60 l 537 60 l 557 162 l 616 162 l 585 0 z"},"x":{"x_min":0,"x_max":564,"ha":564,"o":"m 64 0 l 3 0 l 232 249 l 117 467 l 53 467 l 62 519 l 194 519 l 302 317 l 488 519 l 549 519 l 325 275 l 443 52 l 511 52 l 501 0 l 365 0 l 255 207 z"},")":{"x_min":0,"x_max":390,"ha":390,"o":"m -18 -156 l -8 -108 q 77 -56 128 38 q 179 132 212 302 q 246 472 231 566 q 216 660 151 712 l 160 760 q 269 707 307 591 q 345 476 312 302 q 278 128 195 13 q 112 -103 -18 -156 z"},"&":{"x_min":0,"x_max":890,"ha":890,"o":"m 491 113 l 265 412 q 215 374 186 330 q 156 286 146 236 q 142 215 142 196 q 142 141 176 100 q 221 45 305 45 q 355 45 403 62 q 450 80 491 113 z m 772 0 l 576 0 l 523 71 q 463 28 401 7 q 339 -14 271 -14 q 146 -14 84 50 q 39 98 39 171 q 39 196 45 225 q 58 290 106 346 q 154 403 239 452 q 220 482 214 512 q 211 526 211 541 q 211 557 214 573 q 229 651 294 697 q 359 742 456 742 q 488 742 530 734 q 572 726 625 709 l 601 583 l 545 583 q 546 589 546 595 q 546 638 523 663 q 497 690 443 690 q 393 690 356 662 q 320 635 311 591 q 309 581 309 570 q 309 551 316 531 q 327 503 369 447 l 569 181 q 611 220 639 265 q 667 311 682 362 l 692 414 l 835 414 l 825 362 l 741 362 q 720 298 685 243 q 650 188 601 141 l 667 52 l 782 52 z"},"_":{"x_min":0,"x_max":500,"ha":500,"o":"m 500 -197 l 500 -236 l 0 -236 l 0 -197 z"},"v":{"x_min":0,"x_max":565,"ha":565,"o":"m 263 0 l 197 0 l 97 467 l 38 467 l 47 519 l 182 519 l 270 110 q 326 159 363 221 q 441 350 469 467 l 410 467 l 420 519 l 554 519 q 501 318 434 205 q 375 107 263 0 z"},"O":{"x_min":0,"x_max":820,"ha":820,"o":"m 347 38 q 466 38 543 120 q 621 203 652 364 q 683 525 638 608 q 593 690 474 690 q 354 690 276 608 q 199 525 168 364 q 137 203 182 120 q 227 38 347 38 z m 336 -14 q 262 -14 205 10 q 147 35 109 82 q 65 137 52 206 q 39 275 56 364 q 73 452 113 522 q 153 591 219 646 q 276 694 342 718 q 409 742 484 742 q 643 742 720 638 q 797 534 764 364 q 747 276 707 206 q 666 136 601 82 q 544 34 478 10 q 411 -14 336 -14 z"},"(":{"x_min":0,"x_max":390,"ha":390,"o":"m 230 -156 q 122 -103 83 13 q 45 128 79 302 q 113 476 196 591 q 279 707 408 760 l 398 712 q 313 660 262 566 q 211 472 178 302 q 145 132 159 38 q 174 -56 239 -108 z"},"C":{"x_min":0,"x_max":765,"ha":765,"o":"m 672 193 q 620 91 533 38 q 447 -14 331 -14 q 260 -14 204 10 q 147 35 109 82 q 65 137 52 206 q 39 276 56 364 q 89 534 208 638 q 326 742 487 742 q 546 742 611 727 q 675 711 746 679 l 714 511 l 659 511 q 658 603 612 646 q 566 690 468 690 q 352 690 275 607 q 199 524 168 364 q 137 204 181 121 q 225 38 341 38 q 423 38 483 77 q 543 116 582 193 z"},"W":{"x_min":0,"x_max":1028,"ha":1028,"o":"m 691 0 l 611 0 l 560 593 l 277 0 l 197 0 l 138 677 l 65 677 l 76 729 l 342 729 l 332 677 l 241 677 l 288 138 l 569 729 l 648 729 l 701 132 l 959 677 l 875 677 l 886 729 l 1096 729 l 1085 677 l 1014 677 z"},"A":{"x_min":0,"x_max":722,"ha":722,"o":"m 181 264 l 449 264 l 382 611 z m -76 0 l -66 52 l -2 52 l 389 729 l 471 729 l 600 52 l 671 52 l 662 0 l 396 0 l 406 52 l 487 52 l 458 212 l 151 212 l 59 52 l 139 52 l 129 0 z"},"f":{"x_min":0,"x_max":370,"ha":370,"o":"m 499 637 l 451 637 q 453 647 453 657 q 453 679 441 693 q 425 712 386 712 q 336 712 310 684 q 284 657 271 586 l 257 519 l 402 519 l 392 467 l 247 467 l 150 -32 q 133 -119 80 -164 q 26 -208 -62 -208 l -56 -160 q -4 -160 21 -133 q 46 -104 61 -32 l 157 467 l 71 467 l 82 519 l 167 519 l 180 584 q 197 671 251 715 q 305 760 392 760 q 425 760 456 754 q 488 748 518 736 z"},"Q":{"x_min":0,"x_max":820,"ha":820,"o":"m 363 -14 q 195 -14 116 89 q 61 161 61 268 q 61 312 70 364 q 87 452 128 522 q 168 591 233 646 q 290 694 356 718 q 423 742 498 742 q 657 742 734 638 q 788 565 788 460 q 788 415 778 364 q 750 219 658 121 q 565 22 431 -6 q 451 -39 486 -54 q 521 -70 574 -70 l 696 -70 l 678 -160 l 621 -160 q 492 -160 438 -120 q 385 -80 363 -14 z m 361 38 q 480 38 558 120 q 635 203 666 364 q 679 430 679 483 q 679 559 652 607 q 607 690 488 690 q 368 690 291 608 q 213 525 182 364 q 169 298 169 245 q 169 169 196 120 q 241 38 361 38 z"},"w":{"x_min":0,"x_max":856,"ha":856,"o":"m 584 114 q 649 184 664 210 q 718 308 771 467 l 695 466 l 705 519 l 835 519 l 825 466 l 825 466 q 775 285 728 198 q 658 73 581 0 l 506 0 l 453 388 l 250 0 l 178 0 l 115 467 l 56 466 l 66 519 l 200 519 l 255 114 l 467 519 l 530 519 z"},"-":{"x_min":0,"x_max":338,"ha":338,"o":"m 51 306 l 301 306 l 287 230 l 37 230 z"},"E":{"x_min":0,"x_max":730,"ha":730,"o":"m -15 0 l -5 52 l 87 52 l 209 677 l 116 677 l 126 729 l 713 729 l 682 567 l 622 567 l 642 669 l 307 669 l 259 425 l 498 425 l 516 516 l 576 516 l 529 274 l 469 274 l 486 365 l 248 365 l 188 60 l 531 60 l 551 162 l 611 162 l 580 0 z"},"s":{"x_min":0,"x_max":513,"ha":513,"o":"m 35 150 l 86 150 q 84 136 84 123 q 84 34 205 34 q 326 34 344 123 q 345 132 345 147 q 345 163 329 181 q 312 199 242 223 l 181 245 q 119 267 98 294 q 78 322 78 354 q 78 366 81 381 q 95 452 155 493 q 215 533 302 533 q 388 533 479 491 l 457 378 l 405 378 q 407 389 407 399 q 407 435 383 460 q 358 485 301 485 q 186 485 170 405 q 168 396 168 382 q 168 367 184 350 q 200 333 262 312 l 329 290 q 398 267 424 232 q 442 208 442 184 q 442 82 360 28 q 296 -14 197 -14 q 99 -14 11 29 z"},">":{"x_min":0,"x_max":838,"ha":838,"o":"m 106 498 l 106 581 l 732 354 l 732 273 l 106 46 l 106 129 l 613 313 z"},"l":{"x_min":0,"x_max":320,"ha":320,"o":"m 141 52 l 226 52 l 216 0 l 42 0 l 179 708 l 93 708 l 103 760 l 279 760 z"},"8":{"x_min":0,"x_max":636,"ha":636,"o":"m 434 199 q 449 277 418 321 q 388 364 318 364 q 248 364 200 321 q 153 277 138 199 q 123 121 153 77 q 184 34 254 34 q 324 34 371 77 q 418 121 434 199 z m 482 553 q 496 620 469 657 q 442 694 382 694 q 322 694 281 657 q 240 620 227 553 q 214 486 240 449 q 267 412 327 412 q 388 412 429 449 q 470 486 482 553 z m 398 388 q 479 377 515 327 q 552 277 537 199 q 517 97 441 41 q 365 -14 244 -14 q 124 -14 69 41 q 15 97 35 199 q 50 277 106 327 q 162 377 248 388 q 177 401 146 444 q 115 487 127 553 q 145 641 215 692 q 286 742 392 742 q 498 742 548 692 q 599 641 582 553 q 569 487 521 444 q 474 401 398 388 z"},"\\":{"x_min":0,"x_max":337,"ha":337,"o":"m 158 729 l 257 -93 l 179 -93 l 80 729 z"},"e":{"x_min":0,"x_max":592,"ha":592,"o":"m 146 199 q 145 181 145 164 q 145 118 161 88 q 190 34 267 34 q 324 34 352 51 q 401 82 413 122 l 479 122 q 459 60 387 16 q 336 -14 235 -14 q 135 -14 81 61 q 42 113 42 188 q 42 222 50 259 q 74 383 156 458 q 239 533 356 533 q 547 533 547 398 q 547 299 447 250 q 345 201 146 199 z m 397 309 q 452 341 452 401 q 452 485 341 485 q 275 485 230 435 q 185 385 157 251 q 313 258 397 309 z"},"b":{"x_min":0,"x_max":640,"ha":640,"o":"m 180 708 l 94 708 l 104 760 l 280 760 l 218 438 q 253 487 299 510 q 344 533 404 533 q 500 533 546 458 q 576 408 576 338 q 576 301 568 260 q 544 138 469 62 q 394 -14 298 -14 q 238 -14 201 9 q 165 32 148 81 l 133 0 l 43 0 z m 178 234 q 170 195 170 165 q 170 120 186 91 q 212 42 281 42 q 350 42 396 97 q 442 152 463 260 q 473 309 473 348 q 473 393 459 422 q 435 477 365 477 q 297 477 251 428 q 206 378 188 285 z"},"%":{"x_min":0,"x_max":950,"ha":950,"o":"m 289 697 q 246 697 214 656 q 182 616 167 543 q 154 471 170 430 q 187 389 229 389 q 271 389 302 430 q 334 471 349 543 q 363 615 346 656 q 330 697 289 697 z m 722 339 q 680 339 647 298 q 615 257 601 184 q 587 112 604 72 q 620 31 662 31 q 704 31 736 72 q 768 112 782 184 q 796 256 780 298 q 764 339 722 339 z m 730 383 q 808 383 843 329 q 878 275 860 184 q 842 93 786 39 q 730 -14 653 -14 q 575 -14 540 39 q 505 93 523 184 q 541 276 597 329 q 653 383 730 383 z m 740 742 l 814 742 l 210 -14 l 136 -14 z m 427 544 q 409 452 353 398 q 297 345 220 345 q 142 345 107 399 q 72 452 90 544 q 108 635 164 688 q 220 742 297 742 q 374 742 409 689 q 445 635 427 544 z"},"m":{"x_min":0,"x_max":948,"ha":948,"o":"m 547 418 q 584 475 630 504 q 676 533 730 533 q 812 533 842 482 q 860 452 860 403 q 860 371 852 330 l 798 52 l 879 52 l 869 0 l 698 0 l 760 320 q 768 358 768 385 q 768 416 759 433 q 742 467 688 467 q 628 467 588 421 q 547 376 530 289 l 474 0 l 384 0 l 447 323 q 454 360 454 386 q 454 417 445 434 q 428 467 374 467 q 314 467 274 421 q 233 376 216 289 l 160 0 l 70 0 l 161 468 l 75 468 l 85 519 l 261 519 l 243 427 q 278 479 322 506 q 366 533 415 533 q 475 533 510 503 q 544 473 547 418 z"},"#":{"x_min":0,"x_max":838,"ha":838,"o":"m 509 440 l 371 440 l 330 277 l 469 277 z m 440 718 l 390 515 l 528 515 l 578 718 l 662 718 l 611 515 l 761 515 l 761 440 l 592 440 l 552 277 l 705 277 l 705 202 l 533 202 l 483 0 l 399 0 l 450 202 l 312 202 l 261 0 l 178 0 l 228 202 l 77 202 l 77 277 l 247 277 l 287 440 l 133 440 l 133 515 l 306 515 l 357 718 z"},",":{"x_min":0,"x_max":318,"ha":318,"o":"m 20 -97 q 72 -63 103 -18 q 133 28 146 93 l 149 111 l 245 111 q 225 27 178 -32 q 131 -92 51 -136 z"},"n":{"x_min":0,"x_max":644,"ha":644,"o":"m 70 0 l 161 467 l 75 467 l 85 519 l 261 519 l 243 427 q 278 479 323 506 q 368 533 421 533 q 507 533 538 484 q 557 454 557 404 q 557 372 548 330 l 494 52 l 574 52 l 564 0 l 394 0 l 453 302 q 462 352 462 386 q 462 416 455 433 q 438 468 379 468 q 316 468 275 422 q 233 376 216 289 l 160 0 z"},"h":{"x_min":0,"x_max":644,"ha":644,"o":"m 48 0 l 186 708 l 100 708 l 110 760 l 286 760 l 221 427 q 256 479 301 506 q 346 533 399 533 q 485 533 516 484 q 535 454 535 404 q 535 372 526 330 l 472 52 l 552 52 l 542 0 l 372 0 l 431 302 q 440 352 440 386 q 440 416 433 432 q 417 467 357 467 q 294 467 253 421 q 211 376 194 289 l 138 0 z"},"z":{"x_min":0,"x_max":527,"ha":527,"o":"m 398 476 q 451 476 502 519 l 532 519 l 524 477 l 169 107 q 174 105 188 101 q 205 96 221 85 l 245 70 q 291 42 324 42 q 388 42 463 116 l 452 57 q 368 -25 305 -25 q 266 -24 212 9 q 158 43 124 43 q 71 43 20 0 l -10 0 l -2 42 l 354 412 q 348 414 334 418 q 317 423 301 434 l 277 449 q 231 477 198 477 q 134 477 59 403 l 70 462 q 154 544 217 544 q 256 543 310 510 q 364 476 398 476 z"},"B":{"x_min":0,"x_max":735,"ha":735,"o":"m 187 52 l 333 52 q 420 52 469 90 q 517 128 533 211 q 549 293 516 331 q 483 369 395 369 l 249 369 z m 258 421 l 382 421 q 462 421 505 452 q 548 482 561 549 q 574 616 543 646 q 512 677 432 677 l 308 677 z m -15 0 l -5 52 l 87 52 l 209 677 l 116 677 l 126 729 l 486 729 q 597 729 644 684 q 691 639 673 549 q 661 484 615 445 q 568 407 492 398 q 583 386 621 339 q 660 291 645 211 q 624 103 545 51 q 467 0 322 0 z"},"K":{"x_min":0,"x_max":747,"ha":747,"o":"m -15 0 l -5 52 l 87 52 l 209 677 l 116 677 l 126 729 l 411 729 l 401 677 l 308 677 l 254 401 l 622 677 l 543 677 l 553 729 l 795 729 l 785 677 l 703 677 l 337 402 l 619 52 l 702 52 l 692 0 l 522 0 l 244 346 l 187 52 l 279 52 l 270 0 z"},"R":{"x_min":0,"x_max":753,"ha":753,"o":"m 479 362 q 511 353 532 330 q 552 308 564 268 l 627 52 l 716 52 l 707 0 l 535 0 l 466 232 q 446 299 423 319 q 399 339 352 339 l 243 339 l 187 52 l 290 52 l 280 0 l -15 0 l -5 52 l 87 52 l 209 677 l 116 677 l 126 729 l 496 729 q 603 729 651 678 q 699 627 681 534 q 666 459 615 416 q 564 373 479 362 z m 253 391 l 397 391 q 471 391 512 426 q 554 461 569 534 q 583 607 554 642 q 526 677 452 677 l 308 677 z"},"T":{"x_min":0,"x_max":667,"ha":667,"o":"m 120 0 l 130 52 l 223 52 l 344 671 l 129 671 l 107 557 l 47 557 l 81 729 l 728 729 l 695 557 l 635 557 l 657 671 l 442 671 l 322 52 l 415 52 l 405 0 z"},"P":{"x_min":0,"x_max":673,"ha":673,"o":"m 249 371 l 378 371 q 451 371 496 410 q 542 450 556 524 q 571 599 540 638 q 510 677 437 677 l 308 677 z m -15 0 l -5 52 l 87 52 l 209 677 l 116 677 l 126 729 l 471 729 q 581 729 634 674 q 687 618 668 524 q 650 430 576 375 q 501 319 392 319 l 239 319 l 187 52 l 299 52 l 290 0 z"},"|":{"x_min":0,"x_max":337,"ha":337,"o":"m 208 764 l 208 -236 l 129 -236 l 129 764 z"},"t":{"x_min":0,"x_max":402,"ha":402,"o":"m 134 467 l 55 467 l 65 519 l 144 519 l 175 680 l 266 680 l 234 519 l 403 519 l 393 467 l 224 467 l 160 137 q 153 99 153 76 q 153 61 156 53 q 166 34 200 34 q 235 34 255 55 q 275 76 285 122 l 353 122 q 335 51 294 19 q 253 -14 183 -14 q 105 -14 79 21 q 63 42 63 81 q 63 105 70 137 z"},"M":{"x_min":0,"x_max":1024,"ha":1024,"o":"m -15 0 l -5 52 l 87 52 l 209 677 l 111 677 l 121 729 l 333 729 l 488 210 l 845 729 l 1044 729 l 1034 677 l 937 677 l 816 52 l 909 52 l 899 0 l 614 0 l 624 52 l 716 52 l 826 615 l 477 107 l 408 107 l 257 615 l 147 52 l 240 52 l 230 0 z"},"g":{"x_min":0,"x_max":640,"ha":640,"o":"m 597 519 l 498 11 q 476 -105 403 -161 q 325 -222 216 -222 q 165 -222 120 -213 q 75 -204 35 -185 l 57 -76 l 104 -76 q 102 -127 130 -150 q 159 -174 220 -174 q 299 -174 344 -129 q 390 -85 408 11 l 422 81 q 386 32 341 9 q 295 -14 238 -14 q 152 -14 109 44 q 82 81 79 131 q 77 161 83 196 q 117 369 237 458 q 339 533 458 533 q 567 534 597 519 z m 498 467 q 497 483 444 483 q 349 483 277 410 q 206 336 179 203 q 172 163 174 133 q 176 103 188 83 q 212 42 274 42 q 343 42 388 91 q 434 140 452 234 l 461 285 z"},"j":{"x_min":0,"x_max":310,"ha":310,"o":"m 183 680 q 187 703 207 719 q 227 736 250 736 q 272 736 285 719 q 295 707 295 691 q 295 686 294 680 q 289 657 270 641 q 251 625 228 625 q 205 625 191 641 q 182 653 182 669 q 182 674 183 680 z m 164 467 l 79 467 l 88 519 l 263 519 l 153 -51 q 137 -131 81 -177 q 24 -222 -60 -222 q -95 -222 -125 -214 q -155 -206 -183 -190 l -162 -83 l -115 -83 q -117 -95 -117 -105 q -117 -136 -104 -152 q -88 -174 -48 -174 q -3 -174 23 -144 q 50 -114 63 -51 z"},"i":{"x_min":0,"x_max":320,"ha":320,"o":"m 158 680 q 162 703 182 719 q 201 736 224 736 q 247 736 260 719 q 270 707 270 691 q 270 686 269 680 q 264 657 245 641 q 226 625 203 625 q 180 625 167 641 q 157 653 157 669 q 157 674 158 680 z m 150 52 l 235 52 l 226 0 l 51 0 l 141 467 l 55 467 l 65 519 l 241 519 z"},"y":{"x_min":0,"x_max":565,"ha":565,"o":"m 575 515 q 527 235 442 88 q 317 -128 217 -193 q 173 -222 56 -222 q 33 -222 10 -218 q -14 -214 -37 -207 l -18 -108 l 28 -108 q 27 -116 27 -123 q 27 -144 36 -155 q 48 -172 80 -172 q 166 -172 241 -97 l 118 467 l 59 467 l 69 519 l 204 519 l 319 4 q 397 122 417 170 q 478 322 490 462 l 431 462 l 441 515 z"},"@":{"x_min":0,"x_max":1000,"ha":1000,"o":"m 604 121 q 567 81 528 62 q 488 42 442 42 q 357 42 316 103 q 274 164 293 262 q 312 360 377 421 q 442 482 528 482 q 573 482 605 462 q 638 443 659 403 l 672 472 l 748 472 l 675 95 q 762 113 819 174 q 877 235 895 327 q 905 381 898 430 q 891 478 866 519 q 827 584 759 618 q 691 653 604 653 q 560 653 515 644 q 471 634 425 615 q 317 570 245 478 q 172 386 149 265 q 133 184 144 115 q 155 46 192 -4 q 234 -62 301 -93 q 368 -123 452 -123 q 515 -123 573 -104 q 632 -86 686 -49 l 705 -83 q 644 -128 572 -151 q 501 -174 421 -174 q 332 -174 257 -141 q 182 -109 133 -49 q 82 13 65 93 q 48 173 66 265 q 83 355 132 435 q 180 514 254 576 q 328 638 419 671 q 510 704 604 704 q 709 704 787 664 q 865 623 909 547 q 937 499 945 443 q 953 387 941 326 q 916 195 821 119 q 727 43 589 42 z m 626 237 l 636 288 q 648 349 621 387 q 593 425 537 425 q 478 425 437 382 q 396 339 380 262 q 365 185 390 142 q 415 99 475 99 q 530 99 572 137 q 614 176 626 237 z"},".":{"x_min":0,"x_max":318,"ha":318,"o":"m 172 116 q 199 116 214 97 q 229 78 224 51 q 219 24 196 5 q 173 -14 146 -14 q 119 -14 104 5 q 89 23 94 51 q 100 78 122 97 q 144 116 172 116 z"},"p":{"x_min":0,"x_max":640,"ha":640,"o":"m 229 285 l 219 234 q 211 195 211 165 q 211 120 227 91 q 253 42 322 42 q 391 42 437 97 q 483 152 504 260 q 513 309 513 348 q 513 393 500 422 q 475 477 406 477 q 338 477 292 428 q 247 378 229 285 z m 174 467 l 88 467 l 98 519 l 274 519 l 259 438 q 294 487 340 510 q 385 533 445 533 q 541 533 586 458 q 617 408 617 338 q 617 301 609 260 q 585 138 510 62 q 435 -14 339 -14 q 279 -14 242 9 q 206 32 189 81 l 133 -208 l 43 -208 z"},"X":{"x_min":0,"x_max":712,"ha":712,"o":"m 321 312 l 92 52 l 187 52 l 177 0 l -64 0 l -55 52 l 29 52 l 299 358 l 148 677 l 70 677 l 80 729 l 369 729 l 359 677 l 273 677 l 384 442 l 590 677 l 496 677 l 506 729 l 745 729 l 735 677 l 653 677 l 406 396 l 569 52 l 647 52 l 637 0 l 348 0 l 357 52 l 444 52 z"},"*":{"x_min":0,"x_max":500,"ha":500,"o":"m 484 604 l 293 515 l 484 425 l 447 367 l 277 473 l 283 287 l 217 287 l 223 473 l 53 367 l 16 425 l 207 514 l 16 604 l 53 662 l 223 556 l 217 742 l 283 742 l 277 556 l 447 662 z"},"Y":{"x_min":0,"x_max":660,"ha":660,"o":"m 118 0 l 128 52 l 221 52 l 272 314 l 118 677 l 49 677 l 60 729 l 331 729 l 320 677 l 235 677 l 360 382 l 600 677 l 518 677 l 528 729 l 740 729 l 729 677 l 661 677 l 373 323 l 320 52 l 413 52 l 403 0 z"},"c":{"x_min":0,"x_max":560,"ha":560,"o":"m 494 156 q 459 73 396 29 q 333 -14 248 -14 q 134 -14 80 61 q 42 113 42 188 q 42 222 50 260 q 74 384 157 459 q 241 533 354 533 q 403 533 450 522 q 497 510 541 487 l 516 354 l 463 354 q 463 361 463 367 q 463 425 438 454 q 410 485 346 485 q 273 485 225 428 q 177 372 155 260 q 145 208 145 168 q 145 122 159 91 q 185 34 258 34 q 316 34 356 64 q 397 95 422 156 z"},"!":{"x_min":0,"x_max":402,"ha":402,"o":"m 154 116 q 181 116 197 97 q 212 78 207 51 q 201 24 178 5 q 156 -14 129 -14 q 101 -14 86 5 q 71 23 77 51 q 82 78 104 97 q 126 116 154 116 z m 210 729 l 336 729 l 225 328 l 201 205 l 141 205 l 165 328 z"},"/":{"x_min":0,"x_max":337,"ha":337,"o":"m 339 729 l 417 729 l -1 -93 l -80 -93 z"},"[":{"x_min":0,"x_max":390,"ha":390,"o":"m 173 760 l 400 760 l 390 708 l 256 708 l 103 -80 l 237 -80 l 227 -132 l 0 -132 z"},"6":{"x_min":0,"x_max":636,"ha":636,"o":"m 339 426 q 270 426 223 377 q 177 328 159 236 q 140 139 167 86 q 194 34 263 34 q 332 34 379 85 q 426 135 444 230 q 462 325 435 375 q 408 426 339 426 z m 175 401 q 215 438 261 456 q 307 474 359 474 q 468 474 519 409 q 569 343 547 230 q 526 119 445 52 q 363 -14 250 -14 q 126 -14 78 78 q 29 170 62 341 q 100 532 199 637 q 298 742 441 742 q 479 742 521 735 q 562 728 603 713 l 580 593 l 524 593 q 528 642 501 668 q 475 694 421 694 q 326 694 266 622 q 206 550 175 401 z"},"r":{"x_min":0,"x_max":478,"ha":478,"o":"m 527 520 l 502 390 l 450 390 q 452 400 452 408 q 452 434 440 448 q 425 467 388 467 q 322 467 277 421 q 233 375 216 289 l 160 0 l 70 0 l 161 468 l 75 468 l 85 519 l 261 519 l 243 427 q 280 481 326 507 q 373 533 433 533 q 455 533 478 530 q 501 526 527 520 z"},"2":{"x_min":0,"x_max":636,"ha":636,"o":"m 164 555 l 109 555 l 135 685 q 192 713 248 728 q 304 742 355 742 q 469 742 524 687 q 579 632 561 537 q 540 430 361 281 q 348 270 340 264 l 121 80 l 425 80 l 442 170 l 500 170 l 466 0 l -4 0 l 6 53 l 271 274 q 358 347 401 408 q 444 470 458 537 q 472 611 441 652 q 411 694 344 694 q 274 694 229 659 q 185 625 164 555 z"},"{":{"x_min":0,"x_max":636,"ha":636,"o":"m 432 -112 l 421 -163 l 391 -163 q 270 -163 235 -127 q 201 -91 222 17 l 247 143 q 261 216 240 245 q 219 273 150 273 l 120 273 l 130 324 l 160 324 q 229 324 261 353 q 293 381 307 454 l 332 580 q 353 688 401 724 q 449 760 571 760 l 601 760 l 591 709 l 558 709 q 489 709 464 688 q 438 666 425 597 l 398 457 q 383 380 352 347 q 321 313 255 299 q 316 282 334 250 q 352 217 336 140 l 309 0 q 296 -69 313 -90 q 330 -112 398 -112 z"},"9":{"x_min":0,"x_max":636,"ha":636,"o":"m 460 327 q 421 290 375 272 q 329 254 275 254 q 167 254 117 319 q 67 385 89 498 q 110 609 192 676 q 273 742 387 742 q 510 742 558 650 q 606 558 573 387 q 536 196 437 91 q 338 -14 195 -14 q 157 -14 116 -7 q 75 0 33 15 l 57 136 l 111 136 q 108 87 135 61 q 162 34 215 34 q 310 34 370 106 q 430 177 460 327 z m 373 694 q 304 694 257 643 q 210 593 192 498 q 174 403 201 353 q 228 302 297 302 q 366 302 413 351 q 459 400 477 492 q 496 589 469 642 q 442 694 373 694 z"}," ":{"x_min":0,"x_max":318,"ha":318,"o":""},"I":{"x_min":0,"x_max":395,"ha":395,"o":"m 187 52 l 279 52 l 270 0 l -15 0 l -5 52 l 87 52 l 209 677 l 116 677 l 126 729 l 411 729 l 401 677 l 308 677 z"},"H":{"x_min":0,"x_max":872,"ha":872,"o":"m -15 0 l -5 52 l 87 52 l 209 677 l 116 677 l 126 729 l 411 729 l 401 677 l 308 677 l 259 425 l 637 425 l 686 677 l 593 677 l 604 729 l 888 729 l 878 677 l 785 677 l 664 52 l 756 52 l 747 0 l 462 0 l 472 52 l 565 52 l 625 365 l 248 365 l 187 52 l 279 52 l 270 0 z"},"4":{"x_min":0,"x_max":636,"ha":636,"o":"m 326 247 l 401 635 l 77 247 z m 492 0 l 160 0 l 170 52 l 288 52 l 315 195 l -3 195 l 7 248 l 423 742 l 520 742 l 423 247 l 562 247 l 552 195 l 413 195 l 385 52 l 502 52 z"},"~":{"x_min":0,"x_max":838,"ha":838,"o":"m 732 394 l 732 322 q 683 279 639 258 q 595 238 550 238 q 503 238 418 270 l 413 272 q 408 274 397 278 q 325 306 279 306 q 234 306 192 288 q 149 271 106 233 l 106 307 q 155 350 198 369 q 242 389 288 389 q 335 389 420 357 l 425 355 q 430 353 440 349 q 511 321 558 321 q 603 321 646 339 q 689 357 732 394 z"},"D":{"x_min":0,"x_max":802,"ha":802,"o":"m 187 52 l 277 52 q 419 52 511 133 q 603 214 633 365 q 662 517 602 597 q 542 677 399 677 l 308 677 z m -15 0 l -5 52 l 87 52 l 209 677 l 116 677 l 126 729 l 417 729 q 605 729 692 633 q 778 537 745 365 q 711 193 587 97 q 463 0 275 0 z"},"^":{"x_min":0,"x_max":838,"ha":838,"o":"m 467 729 l 732 457 l 657 457 l 419 643 l 181 457 l 106 457 l 371 729 z"},"0":{"x_min":0,"x_max":636,"ha":636,"o":"m 467 364 q 499 530 478 612 q 457 694 382 694 q 307 694 254 612 q 201 530 169 364 q 137 198 158 116 q 179 34 254 34 q 329 34 382 116 q 435 198 467 364 z m 244 -14 q 125 -14 78 85 q 31 185 66 364 q 101 543 187 643 q 273 742 392 742 q 511 742 558 643 q 604 543 570 364 q 535 185 449 85 q 363 -14 244 -14 z"},"F":{"x_min":0,"x_max":694,"ha":694,"o":"m -15 0 l -5 52 l 87 52 l 209 677 l 116 677 l 126 729 l 723 729 l 692 567 l 632 567 l 651 669 l 307 669 l 259 425 l 508 425 l 526 516 l 586 516 l 539 274 l 479 274 l 497 365 l 248 365 l 187 52 l 303 52 l 293 0 z"},"`":{"x_min":0,"x_max":500,"ha":500,"o":"m 275 799 l 366 615 l 309 615 l 179 799 z"},"k":{"x_min":0,"x_max":606,"ha":606,"o":"m 330 324 l 474 52 l 549 52 l 539 0 l 395 0 l 253 265 l 170 199 l 131 0 l 42 0 l 179 708 l 93 708 l 103 760 l 279 760 l 183 265 l 441 467 l 366 467 l 376 519 l 522 519 l 512 467 z"},"u":{"x_min":0,"x_max":644,"ha":644,"o":"m 484 519 l 574 519 l 483 52 l 568 52 l 558 0 l 383 0 l 401 92 q 366 40 321 13 q 276 -14 224 -14 q 138 -14 106 35 q 87 64 87 115 q 87 147 96 189 l 149 467 l 68 467 l 79 519 l 250 519 l 191 217 q 182 167 182 133 q 182 104 189 87 q 206 52 265 52 q 328 52 369 98 q 411 144 428 231 z"},"]":{"x_min":0,"x_max":390,"ha":390,"o":"m 391 760 l 218 -132 l -9 -132 l 1 -80 l 135 -80 l 288 708 l 154 708 l 164 760 z"},"U":{"x_min":0,"x_max":843,"ha":843,"o":"m 202 677 l 109 677 l 119 729 l 404 729 l 394 677 l 301 677 l 228 300 q 200 160 235 105 q 271 50 382 50 q 494 50 550 105 q 606 160 634 300 l 707 677 l 614 677 l 624 729 l 870 729 l 860 677 l 767 677 l 692 290 q 660 124 582 55 q 505 -14 352 -14 q 198 -14 146 55 q 95 125 127 290 z"},"o":{"x_min":0,"x_max":602,"ha":602,"o":"m 257 34 q 329 34 377 91 q 425 148 447 260 q 457 311 457 350 q 457 397 443 428 q 417 485 345 485 q 272 485 224 428 q 176 371 155 260 q 145 209 145 170 q 145 123 159 91 q 185 34 257 34 z m 248 -14 q 134 -14 80 61 q 42 113 42 188 q 42 222 50 260 q 74 384 157 458 q 240 533 354 533 q 468 533 522 458 q 559 407 559 332 q 559 298 552 260 q 528 136 445 61 q 361 -14 248 -14 z"},"N":{"x_min":0,"x_max":875,"ha":875,"o":"m -20 0 l -10 52 l 88 52 l 209 677 l 111 677 l 122 729 l 309 729 l 634 154 l 735 677 l 638 677 l 648 729 l 904 729 l 894 677 l 795 677 l 661 -14 l 602 -14 l 255 600 l 148 52 l 246 52 l 236 0 z"},"+":{"x_min":0,"x_max":838,"ha":838,"o":"m 458 627 l 458 353 l 732 353 l 732 274 l 458 274 l 458 0 l 380 0 l 380 274 l 106 274 l 106 353 l 380 353 l 380 627 z"},"G":{"x_min":0,"x_max":799,"ha":799,"o":"m 669 511 q 669 603 624 646 q 578 690 481 690 q 355 690 278 609 q 200 528 168 364 q 137 203 185 121 q 232 38 356 38 q 412 38 465 52 q 518 65 568 93 l 605 281 l 468 281 l 478 333 l 714 333 l 661 61 q 589 23 510 5 q 432 -14 346 -14 q 181 -14 102 89 q 23 192 56 364 q 90 537 209 639 q 329 742 498 742 q 560 742 624 728 q 688 713 757 684 l 724 511 z"},"q":{"x_min":0,"x_max":640,"ha":640,"o":"m 419 81 q 386 32 345 9 q 304 -14 250 -14 q 164 -14 120 44 q 93 81 90 131 q 88 161 95 196 q 128 369 248 458 q 350 533 470 533 q 564 534 594 519 l 463 -156 l 549 -156 l 539 -208 l 363 -208 z m 456 483 q 362 483 289 410 q 217 336 190 203 q 183 163 185 133 q 187 103 199 83 q 223 42 286 42 q 347 42 389 91 q 431 140 449 234 l 495 469 q 495 483 456 483 z"},"d":{"x_min":0,"x_max":640,"ha":640,"o":"m 600 760 l 453 0 l 363 0 l 378 81 q 342 32 297 9 q 252 -14 192 -14 q 96 -14 50 62 q 20 112 20 182 q 20 218 28 260 q 52 382 127 458 q 202 533 298 533 q 358 533 395 510 q 431 487 448 438 l 500 708 l 415 708 l 425 760 z m 408 234 l 418 285 q 425 323 425 354 q 425 398 410 428 q 384 477 315 477 q 246 477 200 422 q 154 368 133 260 q 123 210 123 172 q 123 127 137 97 q 161 42 230 42 q 299 42 344 91 q 390 140 408 234 z"},"1":{"x_min":0,"x_max":636,"ha":636,"o":"m 70 0 l 80 52 l 207 52 l 325 658 l 159 563 l 172 627 l 372 742 l 439 742 l 305 52 l 432 52 l 422 0 z"},"5":{"x_min":0,"x_max":636,"ha":636,"o":"m 575 729 l 560 649 l 226 649 l 185 440 q 214 458 250 466 q 285 475 327 475 q 445 475 501 410 q 557 344 535 231 q 512 115 430 51 q 349 -14 224 -14 q 173 -14 123 -2 q 73 10 22 35 l 50 177 l 105 177 q 96 107 128 71 q 161 34 233 34 q 310 34 362 85 q 413 136 432 231 q 450 326 418 376 q 387 427 310 427 q 266 427 229 411 q 192 396 160 363 l 118 363 l 189 729 z"}}}
